<svg xmlns="http://www.w3.org/2000/svg" xmlns:xlink="http://www.w3.org/1999/xlink" id="processonSvg1000" viewBox="169.25 109.0 650.75 473.6666717529297" width="650.75" height="473.6666717529297"><defs id="ProcessOnDefs1001"><marker id="ProcessOnMarker1011" markerUnits="userSpaceOnUse" orient="auto" markerWidth="16.23606797749979" markerHeight="10.550836550532098" viewBox="-1.0 -1.3763819204711736 16.23606797749979 10.550836550532098" refX="-1.0" refY="3.8990363547948754"><path id="ProcessOnPath1012" d="M12.0 3.8990363547948754L0.0 7.798072709589751V0.0Z" stroke="#323232" stroke-width="2.0" fill="#323232" transform="matrix(1.0,0.0,0.0,1.0,0.0,0.0)"/></marker><marker id="ProcessOnMarker1019" markerUnits="userSpaceOnUse" orient="auto" markerWidth="16.23606797749979" markerHeight="10.550836550532098" viewBox="-1.0 -1.3763819204711736 16.23606797749979 10.550836550532098" refX="-1.0" refY="3.8990363547948754"><path id="ProcessOnPath1020" d="M12.0 3.8990363547948754L0.0 7.798072709589751V0.0Z" stroke="#323232" stroke-width="2.0" fill="#323232" transform="matrix(1.0,0.0,0.0,1.0,0.0,0.0)"/></marker><marker id="ProcessOnMarker1026" markerUnits="userSpaceOnUse" orient="auto" markerWidth="16.23606797749979" markerHeight="10.550836550532098" viewBox="-1.0 -1.3763819204711736 16.23606797749979 10.550836550532098" refX="-1.0" refY="3.8990363547948754"><path id="ProcessOnPath1027" d="M12.0 3.8990363547948754L0.0 7.798072709589751V0.0Z" stroke="#323232" stroke-width="2.0" fill="#323232" transform="matrix(1.0,0.0,0.0,1.0,0.0,0.0)"/></marker><marker id="ProcessOnMarker1037" markerUnits="userSpaceOnUse" orient="auto" markerWidth="16.23606797749979" markerHeight="10.550836550532098" viewBox="-1.0 -1.3763819204711736 16.23606797749979 10.550836550532098" refX="-1.0" refY="3.8990363547948754"><path id="ProcessOnPath1038" d="M12.0 3.8990363547948754L0.0 7.798072709589751V0.0Z" stroke="#323232" stroke-width="2.0" fill="#323232" transform="matrix(1.0,0.0,0.0,1.0,0.0,0.0)"/></marker><marker id="ProcessOnMarker1049" markerUnits="userSpaceOnUse" orient="auto" markerWidth="16.23606797749979" markerHeight="10.550836550532098" viewBox="-1.0 -1.3763819204711736 16.23606797749979 10.550836550532098" refX="-1.0" refY="3.8990363547948754"><path id="ProcessOnPath1050" d="M12.0 3.8990363547948754L0.0 7.798072709589751V0.0Z" stroke="#323232" stroke-width="2.0" fill="#323232" transform="matrix(1.0,0.0,0.0,1.0,0.0,0.0)"/></marker><marker id="ProcessOnMarker1059" markerUnits="userSpaceOnUse" orient="auto" markerWidth="16.23606797749979" markerHeight="10.550836550532098" viewBox="-1.0 -1.3763819204711736 16.23606797749979 10.550836550532098" refX="-1.0" refY="3.8990363547948754"><path id="ProcessOnPath1060" d="M12.0 3.8990363547948754L0.0 7.798072709589751V0.0Z" stroke="#323232" stroke-width="2.0" fill="#323232" transform="matrix(1.0,0.0,0.0,1.0,0.0,0.0)"/></marker><marker id="ProcessOnMarker1067" markerUnits="userSpaceOnUse" orient="auto" markerWidth="16.23606797749979" markerHeight="10.550836550532098" viewBox="-1.0 -1.3763819204711736 16.23606797749979 10.550836550532098" refX="-1.0" refY="3.8990363547948754"><path id="ProcessOnPath1068" d="M12.0 3.8990363547948754L0.0 7.798072709589751V0.0Z" stroke="#323232" stroke-width="2.0" fill="#323232" transform="matrix(1.0,0.0,0.0,1.0,0.0,0.0)"/></marker><marker id="ProcessOnMarker1075" markerUnits="userSpaceOnUse" orient="auto" markerWidth="16.23606797749979" markerHeight="10.550836550532098" viewBox="-1.0 -1.3763819204711736 16.23606797749979 10.550836550532098" refX="-1.0" refY="3.8990363547948754"><path id="ProcessOnPath1076" d="M12.0 3.8990363547948754L0.0 7.798072709589751V0.0Z" stroke="#323232" stroke-width="2.0" fill="#323232" transform="matrix(1.0,0.0,0.0,1.0,0.0,0.0)"/></marker></defs><g id="ProcessOnG1002"><path id="ProcessOnPath1003" d="M169.25 109.0H820.0V582.6666717529297H169.25V109.0Z" fill="none"/><g id="ProcessOnG1004"><g id="ProcessOnG1005" transform="matrix(1.0,0.0,0.0,1.0,225.5,129.0)" opacity="1.0"><path id="ProcessOnPath1006" d="M16.666666666666668 0.0L83.33333333333333 0.0C105.55555555555556 0.0 105.55555555555556 50.0 83.33333333333333 50.0L16.666666666666668 50.0C-5.555555555555556 50.0 -5.555555555555556 0.0 16.666666666666668 0.0Z" stroke="#323232" stroke-width="2.0" stroke-dasharray="none" opacity="1.0" fill="#ffffff"/><g id="ProcessOnG1007" transform="matrix(1.0,0.0,0.0,1.0,10.0,16.875)"><text id="ProcessOnText1008" fill="#000000" font-size="13" x="39.0" y="13.325" font-weight="normal" font-style="normal" text-decoration="none" text-anchor="middle" size="13">开始</text></g></g><g id="ProcessOnG1009"><path id="ProcessOnPath1010" d="M275.5 179.0L275.5 205.5L275.5 205.5L275.5 216.7639320225002" stroke="#323232" stroke-width="2.0" stroke-dasharray="none" fill="none" marker-end="url(#ProcessOnMarker1011)"/></g><g id="ProcessOnG1013" transform="matrix(1.0,0.0,0.0,1.0,207.0,232.0)" opacity="1.0"><path id="ProcessOnPath1014" d="M0.0 35.0L68.5 0.0L137.0 35.0L68.5 70.0L0.0 35.0Z" stroke="#323232" stroke-width="2.0" stroke-dasharray="none" opacity="1.0" fill="#ffffff"/><g id="ProcessOnG1015" transform="matrix(1.0,0.0,0.0,1.0,10.0,26.875)"><text id="ProcessOnText1016" fill="#000000" font-size="13" x="57.5" y="13.325" font-weight="normal" font-style="normal" text-decoration="none" text-anchor="middle" size="13">是否已有分区表</text></g></g><g id="ProcessOnG1017"><path id="ProcessOnPath1018" d="M344.0 267.0L720.5 267.0L720.5 362.4305961460354" stroke="#323232" stroke-width="2.0" stroke-dasharray="none" fill="none" marker-end="url(#ProcessOnMarker1019)"/><g id="ProcessOnG1021" transform="matrix(1.0,0.0,0.0,1.0,579.9652980730177,258.875)"><path id="ProcessOnPath1022" d="M0 0H13.0V16.25H0Z" fill="#fff" transform="matrix(1.0,0.0,0.0,1.0,-6.5,0.0)"/><text id="ProcessOnText1023" fill="#000000" font-size="13" x="0.0" y="13.325" font-weight="normal" font-style="normal" text-decoration="none" text-anchor="middle" size="13">否</text></g></g><g id="ProcessOnG1024"><path id="ProcessOnPath1025" d="M275.5 302.0L275.5 341.8333320617676L275.5 341.8333320617676L275.5 366.4305961460354" stroke="#323232" stroke-width="2.0" stroke-dasharray="none" fill="none" marker-end="url(#ProcessOnMarker1026)"/><g id="ProcessOnG1028" transform="matrix(1.0,0.0,0.0,1.0,275.5,326.0902980730177)"><path id="ProcessOnPath1029" d="M0 0H13.0V16.25H0Z" fill="#fff" transform="matrix(1.0,0.0,0.0,1.0,-6.5,0.0)"/><text id="ProcessOnText1030" fill="#000000" font-size="13" x="0.0" y="13.325" font-weight="normal" font-style="normal" text-decoration="none" text-anchor="middle" size="13">是</text></g></g><g id="ProcessOnG1031" transform="matrix(1.0,0.0,0.0,1.0,189.25,381.66666412353516)" opacity="1.0"><path id="ProcessOnPath1032" d="M0.0 31.0L86.25 0.0L172.5 31.0L86.25 62.0L0.0 31.0Z" stroke="#323232" stroke-width="2.0" stroke-dasharray="none" opacity="1.0" fill="#ffffff"/><g id="ProcessOnG1033" transform="matrix(1.0,0.0,0.0,1.0,10.0,22.875)"><text id="ProcessOnText1034" fill="#000000" font-size="13" x="75.25" y="13.325" font-weight="normal" font-style="normal" text-decoration="none" text-anchor="middle" size="13">是否使用现有分区表</text></g></g><g id="ProcessOnG1035"><path id="ProcessOnPath1036" d="M361.75 412.66666412353516L400.875 412.66666412353516L400.875 412.66666412353516L424.7639320225002 412.66666412353516" stroke="#323232" stroke-width="2.0" stroke-dasharray="none" fill="none" marker-end="url(#ProcessOnMarker1037)"/><g id="ProcessOnG1039" transform="matrix(1.0,0.0,0.0,1.0,393.25696601125014,404.54166412353516)"><path id="ProcessOnPath1040" d="M0 0H13.0V16.25H0Z" fill="#fff" transform="matrix(1.0,0.0,0.0,1.0,-6.5,0.0)"/><text id="ProcessOnText1041" fill="#000000" font-size="13" x="0.0" y="13.325" font-weight="normal" font-style="normal" text-decoration="none" text-anchor="middle" size="13">否</text></g></g><g id="ProcessOnG1042" transform="matrix(1.0,0.0,0.0,1.0,440.0,377.66666412353516)" opacity="1.0"><path id="ProcessOnPath1043" d="M0.0 0.0L146.0 0.0L146.0 70.0L0.0 70.0Z" stroke="#323232" stroke-width="2.0" stroke-dasharray="none" opacity="1.0" fill="#ffffff"/><g id="ProcessOnG1044" transform="matrix(1.0,0.0,0.0,1.0,10.0,18.75)"><text id="ProcessOnText1045" fill="#000000" font-size="13" x="62.0" y="13.325" font-weight="normal" font-style="normal" text-decoration="none" text-anchor="middle" size="13">删除分区表</text><text id="ProcessOnText1046" fill="#000000" font-size="13" x="62.0" y="29.575" font-weight="normal" font-style="normal" text-decoration="none" text-anchor="middle" size="13">wipefs -a /dev/sdX</text></g></g><g id="ProcessOnG1047"><path id="ProcessOnPath1048" d="M586.0 412.66666412353516L613.5 412.66666412353516L613.5 412.66666412353516L625.7639320225002 412.66666412353516" stroke="#323232" stroke-width="2.0" stroke-dasharray="none" fill="none" marker-end="url(#ProcessOnMarker1049)"/></g><g id="ProcessOnG1051" transform="matrix(1.0,0.0,0.0,1.0,641.0,377.66666412353516)" opacity="1.0"><path id="ProcessOnPath1052" d="M0.0 0.0L159.0 0.0L159.0 70.0L0.0 70.0Z" stroke="#323232" stroke-width="2.0" stroke-dasharray="none" opacity="1.0" fill="#ffffff"/><g id="ProcessOnG1053" transform="matrix(1.0,0.0,0.0,1.0,10.0,10.625)"><text id="ProcessOnText1054" fill="#000000" font-size="13" x="68.5" y="13.325" font-weight="normal" font-style="normal" text-decoration="none" text-anchor="middle" size="13">创建并编辑分区表</text><text id="ProcessOnText1055" fill="#000000" font-size="13" x="68.5" y="29.575" font-weight="normal" font-style="normal" text-decoration="none" text-anchor="middle" size="13">选择分区表的类型：D</text><text id="ProcessOnText1056" fill="#000000" font-size="13" x="68.5" y="45.825" font-weight="normal" font-style="normal" text-decoration="none" text-anchor="middle" size="13">OS 或 GPT</text></g></g><g id="ProcessOnG1057"><path id="ProcessOnPath1058" d="M275.5 443.66666412353516L275.5 480.1666679382324L275.5 480.1666679382324L275.5 501.4306037754299" stroke="#323232" stroke-width="2.0" stroke-dasharray="none" fill="none" marker-end="url(#ProcessOnMarker1059)"/></g><g id="ProcessOnG1061" transform="matrix(1.0,0.0,0.0,1.0,210.75,516.6666717529297)" opacity="1.0"><path id="ProcessOnPath1062" d="M0.0 0.0L129.5 0.0L129.5 46.0L0.0 46.0Z" stroke="#323232" stroke-width="2.0" stroke-dasharray="none" opacity="1.0" fill="#ffffff"/><g id="ProcessOnG1063" transform="matrix(1.0,0.0,0.0,1.0,10.0,14.875)"><text id="ProcessOnText1064" fill="#000000" font-size="13" x="53.75" y="13.325" font-weight="normal" font-style="normal" text-decoration="none" text-anchor="middle" size="13">编辑现有分区表</text></g></g><g id="ProcessOnG1065"><path id="ProcessOnPath1066" d="M340.25 539.6666717529297L492.625 539.6666717529297L492.625 539.6666717529297L629.7639320225002 539.6666717529297" stroke="#323232" stroke-width="2.0" stroke-dasharray="none" fill="none" marker-end="url(#ProcessOnMarker1067)"/></g><g id="ProcessOnG1069" transform="matrix(1.0,0.0,0.0,1.0,645.0,519.6666741371155)" opacity="1.0"><path id="ProcessOnPath1070" d="M0.0 0.0L151.0 0.0L151.0 39.99999523162842L0.0 39.99999523162842Z" stroke="#323232" stroke-width="2.0" stroke-dasharray="none" opacity="1.0" fill="#ffffff"/><g id="ProcessOnG1071" transform="matrix(1.0,0.0,0.0,1.0,10.0,11.874997615814209)"><text id="ProcessOnText1072" fill="#000000" font-size="13" x="64.5" y="13.325" font-weight="normal" font-style="normal" text-decoration="none" text-anchor="middle" size="13">cfdisk /dev/sdX</text></g></g><g id="ProcessOnG1073"><path id="ProcessOnPath1074" d="M720.5 447.66666412353516L720.5 483.6666691303253L720.5 483.6666691303253L720.5 504.4306061596157" stroke="#323232" stroke-width="2.0" stroke-dasharray="none" fill="none" marker-end="url(#ProcessOnMarker1075)"/></g><g id="ProcessOnG1077" transform="matrix(1.0,0.0,0.0,1.0,380.0,146.3333282470703)" opacity="1.0"><path id="ProcessOnPath1078" d="M0.0 0.0L288.0 0.0L304.0 16.0L304.0 90.33333778381348L0.0 90.33333778381348L0.0 0.0Z" stroke="none" stroke-width="0.0" stroke-dasharray="none" opacity="1.0" fill="#ffffaa"/><path id="ProcessOnPath1079" d="M288.0 0.0L288.0 16.0L304.0 16.0Z" stroke="none" stroke-width="0.0" stroke-dasharray="none" opacity="1.0" fill="#cdcd78"/><path id="ProcessOnPath1080" d="M0.0 0.0L288.0 0.0L304.0 16.0L304.0 90.33333778381348L0.0 90.33333778381348L0.0 0.0Z" stroke="none" stroke-width="0.0" stroke-dasharray="none" opacity="1.0" fill="none"/><g id="ProcessOnG1081" transform="matrix(1.0,0.0,0.0,1.0,10.0,28.91666889190674)"><text id="ProcessOnText1082" fill="#000000" font-size="13" x="141.0" y="13.325" font-weight="normal" font-style="normal" text-decoration="none" text-anchor="middle" size="13">如果主板是 BIOS 启动，分区类型选 DOS，如果</text><text id="ProcessOnText1083" fill="#000000" font-size="13" x="141.0" y="29.575" font-weight="normal" font-style="normal" text-decoration="none" text-anchor="middle" size="13">是 UEFI 启动或硬盘容量大于 2TB 选 GPT。</text></g></g></g></g></svg>
